<svg xmlns="http://www.w3.org/2000/svg" width="55" height="55" viewBox="0 0 55 55">
  <g id="Group_48886" data-name="Group 48886" transform="translate(-66.001 -738)">
    <g id="Group_48878" data-name="Group 48878" transform="translate(66.181 738)">
      <rect id="Rectangle_4659" data-name="Rectangle 4659" width="55" height="55" rx="27.5" transform="translate(-0.18)" fill="#f8f1ec"/>
    </g>
    <g id="Group_48881" data-name="Group 48881" transform="translate(82.799 754.714)">
      <path id="Path_28898" data-name="Path 28898" d="M27.162,27.75c.028-.113.057-.191.078-.262.573-1.726,1.153-3.445,1.74-5.17a.443.443,0,0,0-.042-.41,10.342,10.342,0,0,1-1.379-5.666,10.474,10.474,0,0,1,8.615-9.888,10.539,10.539,0,0,1,12.336,9.238,10.494,10.494,0,0,1-5.432,10.327,10.181,10.181,0,0,1-4.449,1.259,10.5,10.5,0,0,1-5.425-1.16.471.471,0,0,0-.431-.042c-1.782.58-3.572,1.139-5.361,1.719A1.91,1.91,0,0,1,27.162,27.75Zm2.723-2.688.318-.085c.92-.3,1.853-.608,2.787-.905a.492.492,0,0,1,.41.035,8.556,8.556,0,0,0,5.715,1.28,8.189,8.189,0,0,0,4.845-2.228,8.478,8.478,0,0,0,2.716-8,8.8,8.8,0,0,0-8.184-7.229,8.288,8.288,0,0,0-5.2,1.422,8.584,8.584,0,0,0-4.018,7.321A8.444,8.444,0,0,0,30.8,21.618a.5.5,0,0,1,.071.523c-.233.651-.446,1.3-.672,1.959C30.1,24.4,30.012,24.694,29.885,25.062Z" transform="translate(-27.162 -6.178)" fill="#e6923f" fill-rule="evenodd"/>
      <path id="Path_28899" data-name="Path 28899" d="M27.985,9.445a2.888,2.888,0,0,1,.962-2.164A1.074,1.074,0,0,1,29.7,7c.757-.021.757-.021,1.061.7.226.552.46,1.118.693,1.669a.476.476,0,0,1-.014.5,9.9,9.9,0,0,1-.622.813.438.438,0,0,0-.057.587,6.926,6.926,0,0,0,3.48,2.978.386.386,0,0,0,.5-.106c.255-.311.516-.615.757-.927.2-.262.3-.311.573-.2.721.34,1.429.679,2.136,1.026.212.1.191.29.191.46-.057,1.118-.559,1.683-1.853,2.087a3.169,3.169,0,0,1-1.9-.156A9.744,9.744,0,0,1,29.2,12.345a6.207,6.207,0,0,1-1.089-2.115C28.056,9.962,28.027,9.7,27.985,9.445Z" transform="translate(-22.164 -1.235)" fill="#e6923f" fill-rule="evenodd"/>
    </g>
  </g>
</svg>
